PathFileType	4	(X/Y/Z)	Patient4_TMGait_0pt4_03_right_13.trc.trc
DataRate	CameraRate	NumFrames	NumMarkers	Units	OrigDataRate	OrigDataStartFrame	OrigNumFrames
78.212290502793	78.212290502793	4	33	mm	78.212290502793	89	       141
Frame#	Time	Sacral			L.Shoulder			Chest			R.Shoulder			Neck			R.ASIS			L.ASIS			R.Thigh.Superior			R.Thigh.Lateral			R.Thigh.Inferior			R.Patella			L.Thigh.Superior			L.Thigh.Lateral			L.Thigh.Inferior			L.Patella			L.Shank.Superior			L.Shank.Lateral			L.Shank.Inferior			R.Shank.Superior			R.Shank.Lateral			R.Shank.Inferior			R.Heel			R.Midfoot.Superior			R.Midfoot.Lateral			R.Toe			L.Heel			L.Midfoot.Lateral			L.Midfoot.Superior			L.Toe			L.Elbow			L.Wrist			R.Elbow			R.Wrist			
		X1	Y1	Z1	X2	Y2	Z2	X3	Y3	Z3	X4	Y4	Z4	X5	Y5	Z5	X6	Y6	Z6	X7	Y7	Z7	X8	Y8	Z8	X9	Y9	Z9	X10	Y10	Z10	X11	Y11	Z11	X12	Y12	Z12	X13	Y13	Z13	X14	Y14	Z14	X15	Y15	Z15	X16	Y16	Z16	X17	Y17	Z17	X18	Y18	Z18	X19	Y19	Z19	X20	Y20	Z20	X21	Y21	Z21	X22	Y22	Z22	X23	Y23	Z23	X24	Y24	Z24	X25	Y25	Z25	X26	Y26	Z26	X27	Y27	Z27	X28	Y28	Z28	X29	Y29	Z29	X30	Y30	Z30	X31	Y31	Z31	X32	Y32	Z32	X33	Y33	Z33	

89	17.255142857143	809.520179232167	1001.742255870384	473.430718671950	950.762933205947	1420.900850645832	251.187120965581	1079.385013927575	1362.600606816025	397.105642422071	1023.429413526888	1443.931717472223	578.577952568724	957.683236865678	1490.905716099071	404.243713224880	1049.617219845040	937.060341426731	563.644946716357	1005.726985717133	959.327827384083	291.980990593922	1079.827713759896	730.689373329864	534.924936442916	1003.175363941777	621.156589959250	605.571807873579	1074.357797704244	563.062042872494	523.594981664378	1066.431177977842	456.955765115810	542.701123568289	1077.658998606776	760.207951832030	313.741817356006	998.242496758651	635.978656601758	258.877772555918	1097.027771158304	568.246294741055	312.413752147431	1105.619059758036	498.529200714187	319.466858303925	1081.376021556228	423.945895947564	311.791227634560	993.809817322775	306.600712251997	263.631867146599	1055.408183156069	196.211268631627	328.015497893075	995.467096625421	386.705846129360	551.955927308872	883.897374748424	332.945863726713	619.700406436989	875.446425338567	225.513313891502	564.763883793960	680.717216229045	128.468806177945	545.959640411254	857.908527330528	112.051110455579	579.852214220865	754.862149320916	87.717213835698	617.976777707559	948.574220347534	34.542834351066	606.105988809412	936.931280095453	38.226925315110	373.827775738329	1006.059196266885	35.111213632292	288.877684451128	1090.030196224583	97.257448238702	312.213661640539	1217.181381599515	47.427433289175	276.599224495473	897.474602144417	1068.409064089073	146.940316049251	1009.954503284755	830.858956832497	123.370823041218	1079.039553077358	1099.419536782859	699.056171029262	1243.979655046994	932.987210770313	588.890146222343	
90	17.267928571429	809.209859233136	1002.104615844246	470.885843807641	952.629412621843	1421.282109915861	248.805049951995	1080.060685215027	1362.856971984955	395.707866107927	1022.948284839777	1444.324495753310	576.760181851015	958.471389926539	1491.388561903180	401.750242960250	1049.062925119527	937.180397300473	562.214672505101	1006.120388659145	960.040266683169	290.284168351833	1084.502498994007	733.224758690850	532.920351057646	1011.040886256854	622.051524053336	603.862072644282	1084.197588041988	565.282536496634	522.137680321972	1077.735281576906	458.019255953926	541.809593844445	1076.338513787402	759.508259093451	312.005750776634	996.130381902880	636.125689299789	257.314543820399	1093.797000404537	567.557811739760	311.592515153011	1101.639573863382	497.961790507798	318.833520650868	1077.354287594038	423.551922591288	311.102246491139	989.785833158502	306.315317518357	263.052967936515	1050.706932306156	195.934285065512	327.859757107054	1005.033718270953	388.272628435438	550.953959337998	891.691328444628	338.056792423187	618.557239786833	880.406108993419	230.607611758325	564.413713164933	682.969262524200	141.968038820122	545.548220631693	858.865912354727	115.801387083280	579.785920627144	754.520322483855	97.225191431313	617.701204246474	944.341030479104	33.554936333563	606.147735686501	931.760959064418	38.197137143040	373.791467825889	1000.866270197138	35.058411154464	288.831833494387	1084.914798616545	97.074755493878	312.212337317938	1212.082616376295	47.018857117782	276.522766937141	903.308178170707	1068.806066592156	142.213813779517	1019.363099030406	832.928607240310	119.300107311805	1073.363535250392	1099.207327085271	698.298820648855	1232.773440229546	923.651586876832	593.261419979992	
91	17.280714285714	808.834710909379	1002.330396647128	468.423613826423	954.462392468125	1421.632196679522	246.641796144202	1080.654993393128	1363.030390075343	394.549301952382	1022.323408697148	1444.537582108876	575.204826778148	959.206487132292	1491.806137701704	399.506910817603	1048.462275196370	937.275129327966	560.867366582763	1006.441539476727	960.686391459737	288.654867473024	1089.108077278207	735.951689361670	530.966434112798	1018.892568906057	623.207324858168	602.208525211690	1093.907561045260	567.851628248182	520.687296096315	1088.990109884350	459.543447491806	540.736835977295	1075.027148422317	758.864251720591	310.618606561128	994.230056304328	636.303162514012	255.789946454410	1090.710002395722	566.909203053227	310.912626421133	1097.816340266935	497.386975938566	318.282962583571	1073.471235377108	423.139755049641	310.484305363567	985.896061269103	306.035040497036	262.473526849211	1046.084771808829	195.650200846129	327.742186606895	1014.738303728586	390.168880548867	549.827649786498	899.887513217496	343.351833298554	617.410346581181	885.820663549233	236.002557801549	564.003324461815	686.142965154391	155.896920716956	545.154936378620	860.281117954453	119.985643725477	579.681339194156	754.896269999441	107.258714099978	617.422177122898	940.324532059009	32.509765787847	606.157414665685	926.599831767130	38.177298870763	373.750018031486	995.690590886482	35.020926147176	288.788619559212	1079.823814292134	96.899137017648	312.226364233269	1207.001673222782	46.597601695622	276.462801466228	909.209639596403	1069.271932573527	137.594586759909	1028.718737101055	835.062315218878	115.506176177171	1067.242972139841	1098.798608396971	697.696291735122	1221.018283163801	914.471972652499	598.480136006664	
92	17.293500000000	808.409846687930	1002.452588136134	466.045027463656	956.224688206259	1421.982034354680	244.717140118655	1081.157866309342	1363.152076622577	393.624321131741	1021.567905409568	1444.597679567069	573.912993888862	959.893081244324	1492.176581140280	397.548252412923	1047.822245257854	937.420404787055	559.566582673603	1006.705489006579	961.273049088484	287.087800668203	1093.539653967200	738.853015218052	529.056073789272	1026.594620968592	624.639151934873	600.604845756469	1103.314767460521	570.763155240536	519.216557559249	1100.045249251472	461.512734026664	539.490026100353	1073.784799827839	758.287206325351	309.472997662764	992.490566771059	636.484484091256	254.333425518933	1087.788146683814	566.292894564841	310.298542075007	1094.189385749887	496.812095988076	317.787069656725	1069.755707741375	422.713171464054	309.926763221125	982.138444470436	305.774975738835	261.903189197249	1041.549242768617	195.367110862047	327.656109465000	1024.431952597551	392.388991267492	548.597298005559	908.332604915486	348.767544115565	616.274208612279	891.607605362980	241.607538016778	563.556318650137	690.178422520945	169.918915897635	544.827852057199	862.183083659251	124.519711091607	579.548502240575	756.031715605219	117.539650636272	617.149652238029	936.677001223434	31.489400127455	606.069192833942	921.451160507513	38.167710411244	373.700320810125	990.535487998284	35.000157977888	288.744739214046	1074.754462924725	96.743308924503	312.247634868646	1201.935841191556	46.193160144735	276.414416559738	915.182959606181	1069.834222874278	133.117942815284	1038.023905725527	837.281714254559	112.040117690860	1060.697684560927	1098.235967597266	697.241934844535	1208.726353032786	905.524117280784	604.547511715818	
